<?xml version="1.0" encoding="UTF-8"?> <svg xmlns="http://www.w3.org/2000/svg" width="179" height="51" viewBox="0 0 179 51" fill="none"> <path d="M57.772 50.4998V0.884766H74.0572V19.7857H100.299V0.884766H116.5V50.4998H100.299V31.2613H74.0572V50.4998H57.772Z" fill="#333333"></path> <path d="M126.84 50.4998L127.683 43.7495V0.884766H143.884V38.9399H173.755L178.817 49.5717C178.817 49.7967 178.058 50.0217 176.539 50.2467C175.02 50.4155 172.404 50.4998 168.692 50.4998H126.84Z" fill="#333333"></path> <path d="M4.33749e-06 -7.62939e-05L0.8438 6.75027L0.843796 49.615L17.0446 49.615L17 30.6243L40.0446 30.5L40.0446 19L17 18.7348L17.0446 11.5599L46.9149 11.5599L51.9777 0.928105C51.9777 0.703093 51.2183 0.478076 49.6995 0.253064C48.1806 0.0843049 45.5649 -7.23105e-05 41.8522 -7.26351e-05L4.33749e-06 -7.62939e-05Z" fill="#333333"></path> </svg> 